<svg width="2093" height="5572" viewBox="0 0 2093 5572" fill="none" xmlns="http://www.w3.org/2000/svg">
<rect x="181.154" y="972" width="1680" height="537" fill="url(#paint0_linear_282_403)"/>
<rect x="3.91016" y="2686.71" width="2001.88" height="1157.95" transform="rotate(-4.63266 3.91016 2686.71)" fill="url(#paint1_linear_282_403)"/>
<rect width="1865.77" height="755.994" transform="matrix(0.996733 0.080767 0.080767 -0.996733 78.105 4227.69)" fill="url(#paint2_linear_282_403)"/>
<rect x="1987.19" y="2243.7" width="1996.44" height="848.994" transform="rotate(-174.48 1987.19 2243.7)" fill="url(#paint3_linear_282_403)"/>
<rect x="181.154" y="588" width="1680" height="207" fill="#020306"/>
<rect x="181.154" y="588" width="1680" height="207" fill="#020306"/>
<path d="M181.154 5572H1861.15V4306.5L181.154 4201V5572Z" fill="#020306"/>
<path d="M181.154 2034L1861.15 2205.56V2681H181.154V2034Z" fill="#020306"/>
<rect x="181.154" y="795" width="1680" height="177" fill="#020306"/>
<circle cx="969.654" cy="81.5" r="81.5" fill="url(#paint4_radial_282_403)"/>
<defs>
<linearGradient id="paint0_linear_282_403" x1="1021.15" y1="972" x2="1021.15" y2="1485.12" gradientUnits="userSpaceOnUse">
<stop offset="0.197115" stop-color="#020306"/>
<stop offset="1" stop-color="#002F60" stop-opacity="0"/>
</linearGradient>
<linearGradient id="paint1_linear_282_403" x1="1004.85" y1="2686.71" x2="1004.85" y2="3793.16" gradientUnits="userSpaceOnUse">
<stop offset="0.197115" stop-color="#020306"/>
<stop offset="1" stop-color="#002F60" stop-opacity="0"/>
</linearGradient>
<linearGradient id="paint2_linear_282_403" x1="932.883" y1="2.25304e-05" x2="932.883" y2="722.372" gradientUnits="userSpaceOnUse">
<stop offset="0.197115" stop-color="#020306"/>
<stop offset="1" stop-color="#002F60" stop-opacity="0"/>
</linearGradient>
<linearGradient id="paint3_linear_282_403" x1="2985.41" y1="2243.7" x2="2985.41" y2="3054.93" gradientUnits="userSpaceOnUse">
<stop offset="0.197115" stop-color="#020306"/>
<stop offset="1" stop-color="#002F60" stop-opacity="0"/>
</linearGradient>
<radialGradient id="paint4_radial_282_403" cx="0" cy="0" r="1" gradientUnits="userSpaceOnUse" gradientTransform="translate(969.654 81.5) rotate(90) scale(81.5)">
<stop/>
<stop offset="1" stop-color="#080808" stop-opacity="0"/>
</radialGradient>
</defs>
</svg>
